<?xml version="1.0" encoding="UTF-8"?>
<svg version="1.1" xmlns="http://www.w3.org/2000/svg" width="466" height="535">
<path d="M0 0 C5.7301758 3.08547928 9.8240909 7.61182437 13.75 12.6875 C14.22219971 13.2954541 14.69439941 13.9034082 15.1809082 14.52978516 C23.82296166 25.88492316 30.31551799 38.46841129 36.4375 51.3125 C36.87578125 52.23160156 37.3140625 53.15070313 37.765625 54.09765625 C39.02815108 56.82050417 40.24001152 59.56037734 41.4375 62.3125 C41.72592773 62.97024414 42.01435547 63.62798828 42.31152344 64.30566406 C46.58185113 74.0818965 50.49474631 83.91614822 53.91552734 94.02319336 C55.43383737 98.50386342 57.05425825 102.92076206 58.78515625 107.32421875 C61.90066104 115.36581885 64.54843517 123.5428789 67.1875 131.75 C67.44695404 132.55352905 67.70640808 133.35705811 67.97372437 134.18493652 C74.51320906 154.44846648 80.64920191 174.82087098 86.4375 195.3125 C86.72858643 196.33956055 87.01967285 197.36662109 87.31958008 198.42480469 C88.60576796 203.03621125 89.79490723 207.55731353 90.4375 212.3125 C91.04335938 212.28929687 91.64921875 212.26609375 92.2734375 212.2421875 C107.06023476 211.92370264 107.06023476 211.92370264 113 216.125 C116.17222112 220.95229301 116.1212408 226.88752313 115.01171875 232.4453125 C113.02959282 239.42531423 108.88065771 245.02790877 103.65625 250.01171875 C101.0256856 254.97775219 103.22629457 260.93804036 104.79296875 266.04296875 C105.39657039 267.86433924 106.00786375 269.68317083 106.625 271.5 C107.35369287 273.71111134 108.07862338 275.92346444 108.80078125 278.13671875 C109.0016333 278.75163177 109.20248535 279.3665448 109.40942383 280.00009155 C112.51480916 289.56105877 115.39475904 299.19306666 118.3125 308.8125 C118.92341498 310.82229226 119.53441763 312.83205788 120.14550781 314.84179688 C122.88912476 323.8716882 125.6199342 332.90513258 128.31640625 341.94921875 C133.17188924 358.2106325 138.02829286 374.40353428 144.9375 389.9375 C146.85124 394.68488936 146.61120808 398.38968123 145.4375 403.3125 C145.24800781 404.11558594 145.05851562 404.91867187 144.86328125 405.74609375 C142.48389444 414.56220327 139.38772743 423.26716336 131.4375 428.3125 C124.16526885 431.94149989 116.91838415 432.08826807 109.20703125 429.58984375 C93.08757167 422.38753202 86.32998266 402.04355409 80.44580078 386.73193359 C77.96364469 379.97516759 75.70749823 373.14271095 73.4375 366.3125 C72.77228305 364.33053019 72.10524079 362.34918022 71.43809509 360.36785889 C66.85629639 346.75540383 62.33639255 333.1234353 57.91796875 319.45703125 C57.62626297 318.55551834 57.33455719 317.65400543 57.03401184 316.72517395 C55.61808602 312.34717771 54.20646319 307.96786922 52.80200195 303.58618164 C49.6334165 290.55561178 49.6334165 290.55561178 43.4375 279.3125 C33.64873476 279.39472614 23.74720835 281.66612556 14.125 283.3125 C12.49160109 283.58892385 10.85813789 283.86496808 9.22460938 284.140625 C6.23226252 284.64609788 3.2403003 285.15372545 0.2487793 285.6640625 C-1.63780396 285.98503906 -1.63780396 285.98503906 -3.5625 286.3125 C-4.60051758 286.4986084 -5.63853516 286.6847168 -6.70800781 286.87646484 C-23.44667064 289.43336288 -41.2622862 288.93349689 -57.9140625 286.12890625 C-58.56951553 286.01877701 -59.22496857 285.90864777 -59.90028381 285.79518127 C-66.46354552 284.6856734 -73.01464563 283.5094338 -79.5625 282.3125 C-79.72758057 282.89805664 -79.89266113 283.48361328 -80.06274414 284.08691406 C-90.11688903 318.75825386 -106.72698614 352.65753003 -122.4375 385.0625 C-122.7601181 385.73010345 -123.08273621 386.39770691 -123.41513062 387.08554077 C-140.48178467 422.27214234 -140.48178467 422.27214234 -156.5625 430.3125 C-162.25593607 432.01440885 -168.49409867 432.56471363 -174.0703125 430.2890625 C-181.33120751 425.83407268 -185.73844442 419.25335159 -188.5625 411.3125 C-190.20546452 400.8215404 -186.43391677 391.45410549 -183 381.75 C-182.43946997 380.12465686 -181.88031567 378.49883865 -181.32250977 376.87255859 C-179.76202478 372.34312723 -178.16944886 367.82562998 -176.5625 363.3125 C-176.20671875 362.31138184 -175.8509375 361.31026367 -175.484375 360.27880859 C-173.87745309 355.79369924 -172.21141891 351.33293829 -170.52441406 346.87744141 C-168.67476446 341.94535545 -166.88194713 336.99228903 -165.07601929 332.04406738 C-161.07925099 321.10275975 -157.04286508 310.17618101 -152.96395874 299.26522827 C-152.45509164 297.90354928 -151.94694751 296.54159984 -151.43960571 295.17935181 C-148.6630034 287.72802973 -145.78092045 280.33733181 -142.68798828 273.01074219 C-141.39185881 269.90340532 -140.18247305 266.76981851 -138.99072266 263.62133789 C-135.32477224 253.93944026 -131.09799461 244.61375691 -126.58789062 235.29980469 C-119.77831636 221.21307417 -113.53356315 206.89770926 -107.36865234 192.52050781 C-105.80509997 188.87496595 -104.23456105 185.23247315 -102.66239929 181.59063721 C-94.29759801 162.29344954 -94.29759801 162.29344954 -86.375 142.8125 C-82.00474172 131.66495036 -77.05586776 120.77662383 -72.14892578 109.85742188 C-70.54342994 106.26988732 -68.95471405 102.67536487 -67.37109375 99.078125 C-58.2383017 78.3492397 -58.2383017 78.3492397 -53.19140625 68.53515625 C-51.64368667 65.47312111 -50.18395224 62.38488213 -48.7434082 59.27172852 C-44.03371369 49.09420483 -38.89410728 39.17680784 -33.5625 29.3125 C-33.16353516 28.56983887 -32.76457031 27.82717773 -32.35351562 27.06201172 C-15.51323874 -4.16208844 -15.51323874 -4.16208844 0 0 Z M-7.5625 92.3125 C-9.73085175 97.9640551 -11.68258463 103.60420981 -13.25 109.453125 C-15.68312564 118.05507289 -18.73595898 126.40535642 -21.83349609 134.78710938 C-22.80256213 137.41059587 -23.76321832 140.03704177 -24.72265625 142.6640625 C-28.82249719 153.84554794 -33.15640191 164.91870377 -37.61645508 175.96081543 C-39.08810028 179.61904056 -40.53385301 183.28731693 -41.9765625 186.95703125 C-42.24480835 187.6388446 -42.5130542 188.32065796 -42.78942871 189.02313232 C-43.58924637 191.05690755 -44.38845827 193.09091981 -45.1875 195.125 C-45.99560775 197.18166842 -46.80391066 199.23825929 -47.61273193 201.29464722 C-48.14135002 202.63865941 -48.66955731 203.98283325 -49.19732666 205.32717896 C-50.5457915 208.755938 -51.90935186 212.17775556 -53.29589844 215.59130859 C-53.57517181 216.28093185 -53.85444519 216.97055511 -54.1421814 217.68107605 C-54.67631433 218.9976543 -55.21331276 220.31307471 -55.75357056 221.62715149 C-57.12236278 224.865454 -57.12236278 224.865454 -57.5625 228.3125 C-44.12335184 227.73935986 -30.88435775 226.11906327 -17.5625 224.3125 C-16.73202148 224.19996887 -15.90154297 224.08743774 -15.04589844 223.97149658 C-8.27928124 223.05298353 -1.51437439 222.12237046 5.25 221.1875 C6.2245816 221.05348785 7.19916321 220.91947571 8.20327759 220.78140259 C10.99663784 220.3964392 13.78940639 220.00744568 16.58203125 219.6171875 C17.43099976 219.50061295 18.27996826 219.38403839 19.15466309 219.26393127 C22.36426691 218.81173301 25.35526494 218.33991169 28.4375 217.3125 C28.78724544 211.10238592 27.50528078 205.78445459 25.875 199.8125 C25.47063721 198.29897949 25.47063721 198.29897949 25.05810547 196.75488281 C22.66015194 187.89222268 20.00946417 179.11304798 17.29296875 170.34375 C15.25823859 163.76816404 13.31755045 157.16578563 11.375 150.5625 C6.78600971 135.02094461 1.93899605 119.58866987 -3.29125977 104.25048828 C-4.62868943 100.2944517 -5.90673804 96.45146509 -6.5625 92.3125 C-6.8925 92.3125 -7.2225 92.3125 -7.5625 92.3125 Z " fill="#020202" transform="translate(246.5625,60.6875)"/>
<path d="M0 0 C5.7301758 3.08547928 9.8240909 7.61182437 13.75 12.6875 C14.22219971 13.2954541 14.69439941 13.9034082 15.1809082 14.52978516 C23.82296166 25.88492316 30.31551799 38.46841129 36.4375 51.3125 C36.87578125 52.23160156 37.3140625 53.15070313 37.765625 54.09765625 C39.02815108 56.82050417 40.24001152 59.56037734 41.4375 62.3125 C41.72592773 62.97024414 42.01435547 63.62798828 42.31152344 64.30566406 C46.58185113 74.0818965 50.49474631 83.91614822 53.91552734 94.02319336 C55.43383737 98.50386342 57.05425825 102.92076206 58.78515625 107.32421875 C61.90066104 115.36581885 64.54843517 123.5428789 67.1875 131.75 C67.44695404 132.55352905 67.70640808 133.35705811 67.97372437 134.18493652 C74.51320906 154.44846648 80.64920191 174.82087098 86.4375 195.3125 C86.72858643 196.33956055 87.01967285 197.36662109 87.31958008 198.42480469 C88.60576796 203.03621125 89.79490723 207.55731353 90.4375 212.3125 C91.04335938 212.28929687 91.64921875 212.26609375 92.2734375 212.2421875 C107.06023476 211.92370264 107.06023476 211.92370264 113 216.125 C116.17222112 220.95229301 116.1212408 226.88752313 115.01171875 232.4453125 C113.02959282 239.42531423 108.88065771 245.02790877 103.65625 250.01171875 C101.0256856 254.97775219 103.22629457 260.93804036 104.79296875 266.04296875 C105.39657039 267.86433924 106.00786375 269.68317083 106.625 271.5 C107.35369287 273.71111134 108.07862338 275.92346444 108.80078125 278.13671875 C109.0016333 278.75163177 109.20248535 279.3665448 109.40942383 280.00009155 C112.51480916 289.56105877 115.39475904 299.19306666 118.3125 308.8125 C118.92341498 310.82229226 119.53441763 312.83205788 120.14550781 314.84179688 C122.88912476 323.8716882 125.6199342 332.90513258 128.31640625 341.94921875 C133.17188924 358.2106325 138.02829286 374.40353428 144.9375 389.9375 C146.85124 394.68488936 146.61120808 398.38968123 145.4375 403.3125 C145.24800781 404.11558594 145.05851562 404.91867187 144.86328125 405.74609375 C142.48389444 414.56220327 139.38772743 423.26716336 131.4375 428.3125 C124.16526885 431.94149989 116.91838415 432.08826807 109.20703125 429.58984375 C93.08757167 422.38753202 86.32998266 402.04355409 80.44580078 386.73193359 C77.96364469 379.97516759 75.70749823 373.14271095 73.4375 366.3125 C72.77228305 364.33053019 72.10524079 362.34918022 71.43809509 360.36785889 C66.85629639 346.75540383 62.33639255 333.1234353 57.91796875 319.45703125 C57.62626297 318.55551834 57.33455719 317.65400543 57.03401184 316.72517395 C55.61808602 312.34717771 54.20646319 307.96786922 52.80200195 303.58618164 C49.6334165 290.55561178 49.6334165 290.55561178 43.4375 279.3125 C33.64873476 279.39472614 23.74720835 281.66612556 14.125 283.3125 C12.49160109 283.58892385 10.85813789 283.86496808 9.22460938 284.140625 C6.23226252 284.64609788 3.2403003 285.15372545 0.2487793 285.6640625 C-1.63780396 285.98503906 -1.63780396 285.98503906 -3.5625 286.3125 C-4.60051758 286.4986084 -5.63853516 286.6847168 -6.70800781 286.87646484 C-23.44667064 289.43336288 -41.2622862 288.93349689 -57.9140625 286.12890625 C-58.56951553 286.01877701 -59.22496857 285.90864777 -59.90028381 285.79518127 C-66.46354552 284.6856734 -73.01464563 283.5094338 -79.5625 282.3125 C-79.72758057 282.89805664 -79.89266113 283.48361328 -80.06274414 284.08691406 C-90.11688903 318.75825386 -106.72698614 352.65753003 -122.4375 385.0625 C-122.7601181 385.73010345 -123.08273621 386.39770691 -123.41513062 387.08554077 C-140.48178467 422.27214234 -140.48178467 422.27214234 -156.5625 430.3125 C-162.25593607 432.01440885 -168.49409867 432.56471363 -174.0703125 430.2890625 C-181.33120751 425.83407268 -185.73844442 419.25335159 -188.5625 411.3125 C-190.20546452 400.8215404 -186.43391677 391.45410549 -183 381.75 C-182.43946997 380.12465686 -181.88031567 378.49883865 -181.32250977 376.87255859 C-179.76202478 372.34312723 -178.16944886 367.82562998 -176.5625 363.3125 C-176.20671875 362.31138184 -175.8509375 361.31026367 -175.484375 360.27880859 C-173.87745309 355.79369924 -172.21141891 351.33293829 -170.52441406 346.87744141 C-168.67476446 341.94535545 -166.88194713 336.99228903 -165.07601929 332.04406738 C-161.07925099 321.10275975 -157.04286508 310.17618101 -152.96395874 299.26522827 C-152.45509164 297.90354928 -151.94694751 296.54159984 -151.43960571 295.17935181 C-148.6630034 287.72802973 -145.78092045 280.33733181 -142.68798828 273.01074219 C-141.39185881 269.90340532 -140.18247305 266.76981851 -138.99072266 263.62133789 C-135.32477224 253.93944026 -131.09799461 244.61375691 -126.58789062 235.29980469 C-119.77831636 221.21307417 -113.53356315 206.89770926 -107.36865234 192.52050781 C-105.80509997 188.87496595 -104.23456105 185.23247315 -102.66239929 181.59063721 C-94.29759801 162.29344954 -94.29759801 162.29344954 -86.375 142.8125 C-82.00474172 131.66495036 -77.05586776 120.77662383 -72.14892578 109.85742188 C-70.54342994 106.26988732 -68.95471405 102.67536487 -67.37109375 99.078125 C-58.2383017 78.3492397 -58.2383017 78.3492397 -53.19140625 68.53515625 C-51.64368667 65.47312111 -50.18395224 62.38488213 -48.7434082 59.27172852 C-44.03371369 49.09420483 -38.89410728 39.17680784 -33.5625 29.3125 C-33.16353516 28.56983887 -32.76457031 27.82717773 -32.35351562 27.06201172 C-15.51323874 -4.16208844 -15.51323874 -4.16208844 0 0 Z M-19.51953125 17.0078125 C-27.08126453 29.23960285 -33.56616655 42.03163028 -39.58984375 55.078125 C-41.162629 58.48357716 -42.8134307 61.84103041 -44.50170898 65.19042969 C-55.08222493 86.35633178 -65.23860302 107.84048829 -73.80859375 129.90234375 C-76.30967773 136.29550028 -79.18527839 142.51925997 -82.0625 148.75 C-84.86242589 154.90471514 -87.37728303 161.1440982 -89.74609375 167.4765625 C-91.99905135 173.47041232 -94.4326422 179.17892286 -97.3828125 184.859375 C-98.61714113 187.4261246 -99.56969128 189.99652435 -100.5 192.6875 C-102.242558 197.66524537 -104.46613797 202.22882586 -106.875 206.9140625 C-108.80985746 210.81065044 -110.56852686 214.76532236 -112.3125 218.75 C-114.87629694 224.60717011 -117.54400428 230.39689544 -120.33398438 236.14990234 C-125.28728558 246.36561772 -129.61973752 256.67042358 -133.5625 267.3125 C-134.11361807 268.77770718 -134.66569826 270.24255285 -135.21875 271.70703125 C-136.93837116 276.26671101 -138.65371436 280.82819604 -140.32788086 285.40478516 C-141.59867742 288.85448909 -142.88835709 292.18920436 -144.625 295.4375 C-146.33615622 298.63990481 -147.44533097 301.85650949 -148.5625 305.3125 C-154.86977116 323.90876336 -154.86977116 323.90876336 -158.0625 331.3125 C-161.3648953 338.98921563 -163.97786833 346.91598309 -166.69824219 354.8125 C-167.98958332 358.54790485 -169.30640674 362.27414666 -170.625 366 C-170.86637695 366.68416992 -171.10775391 367.36833984 -171.35644531 368.07324219 C-172.61864431 371.65031753 -173.8874777 375.22490736 -175.1640625 378.796875 C-176.65049653 382.9617933 -178.11640536 387.13340896 -179.5625 391.3125 C-179.90667969 392.30507813 -180.25085938 393.29765625 -180.60546875 394.3203125 C-183.02820054 401.75912278 -183.7923468 407.15739322 -180.5 414.4375 C-177.9802243 419.02405801 -175.26587108 422.82935378 -170.5625 425.3125 C-165.05836797 426.60439687 -160.45673041 424.940883 -155.5625 422.3125 C-151.15284927 418.95784635 -147.84612643 415.44424393 -144.6875 410.875 C-144.25606689 410.2557666 -143.82463379 409.6365332 -143.38012695 408.99853516 C-134.50413522 396.07398928 -128.10013085 382.13548945 -121.61328125 367.921875 C-119.75603313 363.85758054 -117.84618061 359.83639078 -115.82421875 355.8515625 C-114.01510286 352.27771282 -112.44571219 348.70181316 -111.0625 344.9375 C-107.84021947 336.35148604 -104.32561069 327.90240467 -100.5546875 319.54296875 C-95.72449072 308.68453425 -91.39650452 297.6116204 -87.1875 286.5 C-86.92477295 285.81236572 -86.6620459 285.12473145 -86.39135742 284.41625977 C-85.0237098 280.96012671 -85.0237098 280.96012671 -84.5625 277.3125 C-75.85876195 276.76085463 -68.07607135 277.67565367 -59.5625 279.3125 C-40.32955461 282.86731708 -14.67963868 284.91595971 4.24145508 278.33764648 C7.53255365 277.28201109 10.62009398 276.73698623 14.04296875 276.27734375 C15.27337891 276.10783203 16.50378906 275.93832031 17.77148438 275.76367188 C19.04314453 275.59416016 20.31480469 275.42464844 21.625 275.25 C24.16049346 274.90743459 26.69566782 274.56249643 29.23046875 274.21484375 C30.3496167 274.06523193 31.46876465 273.91562012 32.62182617 273.76147461 C35.50714965 273.37978184 35.50714965 273.37978184 38.4375 272.3125 C44.27567427 271.7564834 44.27567427 271.7564834 46.4375 272.3125 C50.73283693 276.38351566 52.28902696 281.60896755 54.1875 287.0625 C54.53329102 288.03493652 54.87908203 289.00737305 55.23535156 290.00927734 C58.03060806 297.95282356 60.61603827 305.95947882 63.15087891 313.98925781 C66.19688535 323.62784976 69.36682989 333.22275493 72.5625 342.8125 C72.81044312 343.55864563 73.05838623 344.30479126 73.31384277 345.07354736 C76.26327774 353.94655727 79.27904524 362.79165719 82.42178345 371.5982666 C83.85027678 375.60772263 85.2068916 379.63243587 86.5 383.6875 C91.15368816 397.72516839 98.07164646 414.50433982 110.4375 423.3125 C116.01318859 425.17106286 122.01894434 424.91713892 127.6875 423.5 C133.83382737 418.61087596 137.97669538 411.25698864 139.2265625 403.5078125 C140.16148636 396.55678795 140.16148636 396.55678795 138.10546875 390.125 C135.83539902 386.29724777 134.71313922 382.30798678 133.4375 378.0625 C132.93822903 376.43206824 132.43823106 374.80185893 131.9375 373.171875 C131.6904834 372.36476074 131.4434668 371.55764648 131.18896484 370.72607422 C129.60732438 365.64612049 127.8876246 360.6137693 126.1484375 355.5859375 C122.53506087 345.09439536 119.40949541 334.47776333 116.34588623 323.81613159 C113.92160126 315.38099805 111.44414987 306.97318174 108.75048828 298.61938477 C107.17922642 293.72280653 105.67787283 288.80767694 104.2109375 283.87890625 C104.01381165 283.2172496 103.81668579 282.55559296 103.61358643 281.87388611 C102.6321897 278.57671257 101.65522866 275.27834204 100.68359375 271.97827148 C98.50946396 264.65557411 96.15288003 257.45301187 93.4375 250.3125 C94.4275 249.9825 95.4175 249.6525 96.4375 249.3125 C98.6888709 246.97502588 98.6888709 246.97502588 100.9375 244.125 C101.7109375 243.18269531 102.484375 242.24039063 103.28125 241.26953125 C106.8026742 236.44033175 108.86258966 232.60665231 108.8125 226.5625 C108.82023437 225.61890625 108.82796875 224.6753125 108.8359375 223.703125 C108.70445312 222.91421875 108.57296875 222.1253125 108.4375 221.3125 C105.28435215 219.21040143 104.57646919 219.0690239 100.98828125 219.1171875 C100.14072266 219.12363281 99.29316406 219.13007813 98.41992188 219.13671875 C97.09831055 219.16185547 97.09831055 219.16185547 95.75 219.1875 C94.85732422 219.19652344 93.96464844 219.20554687 93.04492188 219.21484375 C90.84217686 219.23840252 88.63997412 219.27129671 86.4375 219.3125 C86.29441406 218.17554688 86.29441406 218.17554688 86.1484375 217.015625 C85.16775483 211.90745372 83.6079923 207.02467983 82.0625 202.0625 C81.45034366 200.07817965 80.83836307 198.09380507 80.2265625 196.109375 C79.92782227 195.14708984 79.62908203 194.18480469 79.32128906 193.19335938 C78.19879433 189.53439865 77.12609928 185.86147066 76.06396484 182.18457031 C75.59535306 180.32163176 75.59535306 180.32163176 74.4375 179.3125 C73.98925702 177.29843528 73.58029014 175.27560963 73.1875 173.25 C72.09618138 168.01435084 70.79247202 162.97080926 69.171875 157.8671875 C68.95438599 157.18090775 68.73689697 156.49462799 68.51281738 155.78755188 C67.82596568 153.62758966 67.13287473 151.46973232 66.4375 149.3125 C66.21831909 148.63144196 65.99913818 147.95038391 65.77331543 147.24868774 C64.18455885 142.32473767 62.56850363 137.41010678 60.9375 132.5 C60.68515594 131.74001709 60.43281189 130.98003418 60.17282104 130.19702148 C56.16235521 118.15516991 51.92673159 106.20741426 47.5 94.3125 C47.23123047 93.58896332 46.96246094 92.86542664 46.68554688 92.1199646 C41.0404586 76.25721093 41.0404586 76.25721093 33.4375 61.3125 C32.84024602 59.88908854 32.27814747 58.45047329 31.75 57 C24.70769649 39.04746113 13.5653478 15.50485813 -3.5625 5.3125 C-11.07906326 3.62127327 -15.86090279 11.56429025 -19.51953125 17.0078125 Z " fill="#E3E3E3" transform="translate(246.5625,60.6875)"/>
<path d="M0 0 C3 1 3 1 3.86534119 2.66522217 C4.09532303 3.38768127 4.32530487 4.11014038 4.56225586 4.85449219 C4.96298561 6.0827774 4.96298561 6.0827774 5.37181091 7.33587646 C5.78911217 8.67782074 5.78911217 8.67782074 6.21484375 10.046875 C6.66036339 11.43014984 6.66036339 11.43014984 7.11488342 12.84136963 C8.06711754 15.80741697 9.0023888 18.77851524 9.9375 21.75 C10.56336314 23.7073801 11.1903041 25.66441593 11.81835938 27.62109375 C16.3126957 41.65768456 20.64974 55.73645687 24.8125 69.875 C26.78410441 76.56527717 28.75686302 83.25384482 30.828125 89.9140625 C44.22381399 133.00446289 44.22381399 133.00446289 44.0625 143.8125 C44.05347656 144.60269531 44.04445313 145.39289063 44.03515625 146.20703125 C44.02355469 146.79871094 44.01195312 147.39039063 44 148 C39.68665624 149.56419765 35.59203115 150.48225644 31.05078125 151.11328125 C30.37692383 151.20798706 29.70306641 151.30269287 29.00878906 151.40026855 C26.77757523 151.71119198 24.54521953 152.01259127 22.3125 152.3125 C21.53877045 152.41783051 20.76504089 152.52316101 19.96786499 152.63168335 C7.35800641 154.34582071 -5.26599655 155.95692054 -17.90078735 157.47616577 C-19.73171788 157.69714464 -21.56228111 157.92119255 -23.39242554 158.14859009 C-34.98983826 159.58214041 -46.31372013 160.29911255 -58 160 C-57.34060795 156.52356665 -56.48763274 153.45676228 -55.125 150.1875 C-53.8991164 147.19968333 -52.68522726 144.21565581 -51.5625 141.1875 C-50.21783692 137.57968812 -48.8657576 133.97489242 -47.5 130.375 C-47.0978125 129.31023437 -46.695625 128.24546875 -46.28125 127.1484375 C-45.0030344 124.00745649 -43.51745072 121.03075539 -42 118 C-41.50542262 116.6586462 -41.04352329 115.3044949 -40.625 113.9375 C-38.18549803 106.36354886 -35.34223167 98.92610983 -32.046875 91.68359375 C-29.97638422 87.0627518 -28.30704641 82.35666304 -26.6875 77.5625 C-24.41365227 70.93769058 -22.02363256 64.38412764 -19.4375 57.875 C-14.26957971 44.80964434 -10.0835081 31.43759061 -6 18 C-5.10941392 15.10252659 -4.21204759 12.20720217 -3.3125 9.3125 C-3.09779053 8.61624512 -2.88308105 7.91999023 -2.66186523 7.20263672 C-1.11485788 2.22971577 -1.11485788 2.22971577 0 0 Z M1 18 C-1.16835175 23.6515551 -3.12008463 29.29170981 -4.6875 35.140625 C-7.12062564 43.74257289 -10.17345898 52.09285642 -13.27099609 60.47460938 C-14.24006213 63.09809587 -15.20071832 65.72454177 -16.16015625 68.3515625 C-20.25999719 79.53304794 -24.59390191 90.60620377 -29.05395508 101.64831543 C-30.52560028 105.30654056 -31.97135301 108.97481693 -33.4140625 112.64453125 C-33.68230835 113.3263446 -33.9505542 114.00815796 -34.22692871 114.71063232 C-35.02674637 116.74440755 -35.82595827 118.77841981 -36.625 120.8125 C-37.43310775 122.86916842 -38.24141066 124.92575929 -39.05023193 126.98214722 C-39.57885002 128.32615941 -40.10705731 129.67033325 -40.63482666 131.01467896 C-41.9832915 134.443438 -43.34685186 137.86525556 -44.73339844 141.27880859 C-45.01267181 141.96843185 -45.29194519 142.65805511 -45.5796814 143.36857605 C-46.11381433 144.6851543 -46.65081276 146.00057471 -47.19107056 147.31465149 C-48.55986278 150.552954 -48.55986278 150.552954 -49 154 C-35.56085184 153.42685986 -22.32185775 151.80656327 -9 150 C-8.16952148 149.88746887 -7.33904297 149.77493774 -6.48339844 149.65899658 C0.28321876 148.74048353 7.04812561 147.80987046 13.8125 146.875 C14.7870816 146.74098785 15.76166321 146.60697571 16.76577759 146.46890259 C19.55913784 146.0839392 22.35190639 145.69494568 25.14453125 145.3046875 C25.99349976 145.18811295 26.84246826 145.07153839 27.71716309 144.95143127 C30.92676691 144.49923301 33.91776494 144.02741169 37 143 C37.34974544 136.78988592 36.06778078 131.47195459 34.4375 125.5 C34.03313721 123.98647949 34.03313721 123.98647949 33.62060547 122.44238281 C31.22265194 113.57972268 28.57196417 104.80054798 25.85546875 96.03125 C23.82073859 89.45566404 21.88005045 82.85328563 19.9375 76.25 C15.34850971 60.70844461 10.50149605 45.27616987 5.27124023 29.93798828 C3.93381057 25.9819517 2.65576196 22.13896509 2 18 C1.67 18 1.34 18 1 18 Z " fill="#E3E3E3" transform="translate(238,135)"/>
<path d="M0 0 C0 0.33 0 0.66 0 1 C-2.8740422 1.50612064 -5.74902873 2.00506541 -8.625 2.5 C-9.43324219 2.64308594 -10.24148438 2.78617187 -11.07421875 2.93359375 C-15.43877864 3.67876251 -19.55238129 4.17272306 -24 4 C-16.8350205 -0.776653 -8.32645748 -0.25359769 0 0 Z " fill="#BDBDBD" transform="translate(267,342)"/>
<path d="M0 0 C-2.55272776 2.55272776 -4.21632538 2.60294935 -7.75 3.1875 C-9.28914063 3.45626953 -9.28914063 3.45626953 -10.859375 3.73046875 C-14.11965362 4.01026878 -16.80963921 3.67341448 -20 3 C-20 2.67 -20 2.34 -20 2 C-17.79248152 1.66131223 -15.58394089 1.32928311 -13.375 1 C-12.14523437 0.814375 -10.91546875 0.62875 -9.6484375 0.4375 C-6.3833973 0.04597484 -3.28287549 -0.08080924 0 0 Z " fill="#ADADAD" transform="translate(272,279)"/>
<path d="M0 0 C-1.40844718 3.21524305 -3.10344786 5.32183868 -5.625 7.75 C-6.57246094 8.67039062 -6.57246094 8.67039062 -7.5390625 9.609375 C-8.02117187 10.06828125 -8.50328125 10.5271875 -9 11 C-9 7.25983417 -8.0658409 6.54723807 -5.625 3.8125 C-4.99851563 3.09707031 -4.37203125 2.38164063 -3.7265625 1.64453125 C-2 0 -2 0 0 0 Z " fill="#2F2F2F" transform="translate(238,67)"/>
<path d="M0 0 C0.33 0.66 0.66 1.32 1 2 C0.22265625 4.1640625 0.22265625 4.1640625 -0.9375 6.625 C-1.31777344 7.44226563 -1.69804687 8.25953125 -2.08984375 9.1015625 C-2.39019531 9.72804688 -2.69054687 10.35453125 -3 11 C-4.078125 9.19921875 -4.078125 9.19921875 -5 7 C-2.80487805 1.40243902 -2.80487805 1.40243902 0 0 Z " fill="#B7B7B7" transform="translate(154,374)"/>
<path d="M0 0 C0.99773437 0.02320313 1.99546875 0.04640625 3.0234375 0.0703125 C4.52777344 0.09738281 4.52777344 0.09738281 6.0625 0.125 C6.83335937 0.14820313 7.60421875 0.17140625 8.3984375 0.1953125 C8.3984375 0.5253125 8.3984375 0.8553125 8.3984375 1.1953125 C6.98465968 1.56084053 5.56723174 1.91226745 4.1484375 2.2578125 C3.35953125 2.45503906 2.570625 2.65226562 1.7578125 2.85546875 C-0.70551072 3.21028517 -2.25760382 2.96408794 -4.6015625 2.1953125 C-2.6015625 0.1953125 -2.6015625 0.1953125 0 0 Z " fill="#ADADAD" transform="translate(275.6015625,338.8046875)"/>
<path d="M0 0 C0.33 0 0.66 0 1 0 C1.56638908 4.81430721 -0.17438373 7.20307814 -3 11 C-3.33 10.34 -3.66 9.68 -4 9 C-3.22265625 6.8359375 -3.22265625 6.8359375 -2.0625 4.375 C-1.68222656 3.55773437 -1.30195313 2.74046875 -0.91015625 1.8984375 C-0.60980469 1.27195313 -0.30945313 0.64546875 0 0 Z " fill="#B6B6B6" transform="translate(163,197)"/>
</svg>
