<svg xmlns="http://www.w3.org/2000/svg" width="24" height="24" viewBox="0 0 24 24"><path fill="#181717" d="M12 0C5.37 0 0 5.373 0 12c0 5.303 3.438 9.8 8.205 11.387.6.113.82-.258.82-.577 0-.285-.012-1.232-.017-2.234-3.338.724-4.042-1.415-4.042-1.415-.546-1.387-1.333-1.756-1.333-1.756-1.089-.745.083-.729.083-.729 1.205.085 1.84 1.237 1.84 1.237 1.07 1.834 2.809 1.304 3.495.997.108-.775.418-1.305.762-1.605-2.665-.304-5.467-1.334-5.467-5.931 0-1.31.469-2.381 1.236-3.221-.124-.303-.535-1.523.117-3.176 0 0 1.008-.322 3.301 1.23a11.47 11.47 0 0 1 3.003-.404c1.018.005 2.045.138 3.003.404 2.291-1.553 3.297-1.23 3.297-1.23.653 1.653.242 2.873.119 3.176.77.84 1.235 1.911 1.235 3.221 0 4.609-2.807 5.625-5.479 5.921.43.371.823 1.102.823 2.222 0 1.606-.015 2.899-.015 3.293 0 .322.216.694.825.576C20.565 21.796 24 17.298 24 12c0-6.627-5.373-12-12-12z"/></svg>
