<svg xmlns="http://www.w3.org/2000/svg" width="24" height="24" viewBox="0 0 48 48"><g><path fill="#4285F4" d="M24 9.5c3.54 0 6.71 1.22 9.2 3.23l6.86-6.86C35.73 2.45 30.21 0 24 0 14.84 0 6.82 5.48 2.69 13.44l7.98 6.2C12.1 13.06 17.57 9.5 24 9.5z"/><path fill="#34A853" d="M46.1 24.55c0-1.65-.15-3.23-.42-4.77H24v9.04h12.38c-.53 2.84-2.12 5.25-4.52 6.88l7.01 5.47C43.95 36.56 46.1 30.98 46.1 24.55z"/><path fill="#FBBC05" d="M10.67 28.67c-1.03-2.03-1.62-4.31-1.62-6.67 0-2.36.59-4.64 1.62-6.67l-7.98-6.2C.98 13.97 0 18.81 0 24c0 5.19.98 10.03 2.69 14.87l7.98-6.2z"/><path fill="#EA4335" d="M24 48c6.21 0 11.42-2.05 15.23-5.6l-7.01-5.47c-2.01 1.35-4.58 2.15-8.22 2.15-6.43 0-11.9-3.56-14.33-8.73l-7.98 6.2C6.82 42.52 14.84 48 24 48z"/><path fill="none" d="M0 0h48v48H0z"/></g></svg>
