<svg xmlns="http://www.w3.org/2000/svg" width="24" height="24" viewBox="0 0 24 24"><path fill="#1DA1F2" d="M24 4.557a9.93 9.93 0 0 1-2.828.775 4.932 4.932 0 0 0 2.165-2.724c-.951.564-2.005.974-3.127 1.195a4.916 4.916 0 0 0-8.38 4.482C7.691 8.095 4.066 6.13 1.64 3.161c-.542.929-.856 2.007-.857 3.163 0 2.18 1.111 4.102 2.809 5.228A4.904 4.904 0 0 1 .964 10.1v.062a4.919 4.919 0 0 0 3.946 4.827 4.996 4.996 0 0 1-2.212.084 4.928 4.928 0 0 0 4.6 3.419A9.867 9.867 0 0 1 0 21.539a13.94 13.94 0 0 0 7.548 2.209c9.057 0 14.009-7.496 14.009-13.986 0-.213-.005-.425-.014-.636A9.935 9.935 0 0 0 24 4.557z"/></svg>
